<?xml version="1.0" standalone="no"?>
<!DOCTYPE svg PUBLIC "-//W3C//DTD SVG 20010904//EN"
 "http://www.w3.org/TR/2001/REC-SVG-20010904/DTD/svg10.dtd">
<svg version="1.0" xmlns="http://www.w3.org/2000/svg"
 width="700.000000pt" height="700.000000pt" viewBox="0 0 700.000000 700.000000"
 preserveAspectRatio="xMidYMid meet">
<metadata>
Created by potrace 1.14, written by Peter Selinger 2001-2017
</metadata>
<g transform="translate(0.000000,700.000000) scale(0.100000,-0.100000)"
fill="#000000" stroke="none">
<path d="M4875 6656 c-266 -94 -475 -187 -619 -274 -37 -23 -70 -42 -72 -42
-7 0 -180 -123 -249 -177 -89 -70 -295 -280 -320 -326 -17 -32 -17 -37 -3 -59
9 -13 53 -46 99 -73 670 -390 1154 -747 1534 -1130 308 -311 503 -577 706
-965 72 -139 150 -345 212 -565 15 -54 40 -67 45 -25 7 54 44 185 64 224 11
23 37 57 58 76 36 34 55 45 113 69 37 15 34 33 -10 67 -107 80 -169 158 -159
198 8 33 27 38 169 45 29 2 19 14 -46 61 -87 63 -107 81 -123 112 -40 76 13
164 113 190 78 19 72 29 -54 84 -96 42 -215 117 -247 155 -60 71 -23 119 121
159 53 15 98 31 100 37 2 5 -56 33 -129 62 -371 149 -407 227 -130 281 39 8
60 16 54 22 -6 6 -54 20 -108 33 -172 41 -264 85 -264 125 0 35 72 75 195 111
63 18 114 37 112 42 -1 5 -45 20 -97 33 -190 48 -375 119 -422 160 -45 42 -5
73 128 100 44 8 86 17 94 19 8 2 23 4 33 4 31 2 18 20 -20 27 -21 4 -47 8 -58
10 -11 2 -47 9 -80 14 -178 32 -321 85 -345 129 -21 40 50 90 200 141 114 38
102 44 -115 64 -186 17 -372 79 -408 137 -28 45 36 122 153 183 78 40 100 54
100 65 0 3 -84 6 -187 6 -207 0 -271 6 -325 28 -41 17 -58 41 -50 71 5 22 44
81 71 106 53 50 255 187 309 209 18 7 29 17 26 22 -7 13 -3 14 -169 -45z"/>
<path d="M1324 6561 c-45 -15 -134 -74 -134 -88 0 -3 24 -1 53 3 28 5 84 8
122 8 58 0 81 -6 134 -32 110 -55 250 -186 348 -325 53 -75 56 -77 67 -55 38
75 193 65 370 -23 115 -58 117 -60 63 -76 -58 -17 -144 -95 -177 -159 -50
-101 -36 -214 37 -289 97 -100 221 -85 298 35 45 71 63 139 61 232 l-2 87 61
-42 c33 -23 73 -49 89 -57 58 -30 114 -90 134 -141 58 -157 -50 -473 -224
-655 -88 -92 -211 -171 -294 -189 l-35 -8 50 40 c146 116 197 223 240 496 8
51 -13 27 -35 -40 -35 -109 -70 -174 -122 -226 -56 -56 -143 -100 -189 -95
-29 3 -36 11 -81 98 l-49 95 17 65 c8 36 18 74 20 85 13 57 11 208 -3 271 -14
61 -40 137 -43 124 -1 -3 -3 -57 -5 -120 -3 -94 -29 -307 -40 -318 -1 -1 -16
19 -33 45 -17 26 -49 68 -72 93 -47 53 -47 54 -54 189 -12 217 -102 462 -229
623 -51 66 -68 82 -140 129 -102 66 -219 88 -292 53 -44 -21 -107 -89 -138
-151 -32 -61 -64 -172 -72 -243 -6 -60 -7 -325 0 -405 5 -59 14 -159 20 -232
6 -65 2 -70 -127 -134 -185 -91 -325 -207 -369 -304 -22 -48 -24 -133 -5 -179
35 -84 132 -147 257 -165 96 -14 149 -40 231 -116 24 -22 70 -63 103 -90 33
-28 62 -53 65 -56 3 -3 66 -54 140 -113 74 -59 143 -114 153 -122 114 -94 222
-153 328 -180 35 -9 78 -27 95 -41 20 -15 35 -20 39 -14 7 13 13 4 -79 136
-41 58 -76 109 -78 114 -2 6 -39 19 -83 31 -44 12 -84 25 -90 29 -5 5 -27 14
-47 20 -91 30 -214 132 -261 219 -34 63 -59 159 -47 181 4 9 34 25 65 35 67
21 193 81 150 71 -117 -27 -195 -37 -294 -39 -102 -2 -151 1 -291 19 -76 10
-171 34 -201 52 -33 20 -50 50 -22 38 72 -30 248 -41 343 -21 45 10 74 16 110
21 19 3 64 13 100 21 266 62 373 63 595 5 74 -19 98 -24 180 -37 59 -10 294
-12 341 -3 27 5 58 11 69 13 40 7 144 55 189 85 97 67 202 200 248 313 12 29
23 55 25 58 2 2 91 -84 196 -191 118 -120 207 -202 230 -213 62 -28 232 -86
375 -126 73 -21 135 -40 137 -41 2 -2 6 -16 10 -30 6 -24 3 -26 -92 -56 -54
-17 -143 -40 -198 -51 -124 -26 -403 -80 -470 -92 -87 -16 -109 -20 -131 -25
-11 -2 -45 -7 -75 -11 -30 -3 -57 -8 -60 -10 -27 -16 -426 -25 -549 -12 -169
17 -323 63 -528 157 -133 61 -149 67 -210 75 -25 3 -39 -1 -54 -16 l-20 -20
28 -28 c16 -16 163 -96 327 -179 165 -82 331 -172 371 -199 84 -57 122 -71
199 -76 74 -5 127 6 237 49 104 41 187 54 275 43 66 -8 315 -11 355 -4 14 3
50 7 80 10 30 4 69 9 85 11 201 34 316 62 495 120 190 61 228 70 335 79 58 5
68 1 55 -22 -6 -9 -14 -29 -19 -43 -8 -22 -17 -27 -63 -32 -29 -3 -116 -26
-193 -51 -249 -81 -522 -143 -715 -163 -81 -9 -342 -9 -455 -1 -76 5 -139 -7
-226 -46 -59 -26 -139 -44 -206 -48 -24 -1 -43 -5 -43 -9 0 -4 16 -17 36 -29
53 -33 139 -24 241 25 97 47 161 50 328 19 97 -19 145 -23 250 -20 72 3 141 7
155 10 14 3 61 13 105 21 240 46 387 98 707 249 32 15 62 25 67 22 5 -3 12
-27 16 -53 4 -27 23 -77 42 -113 34 -63 146 -220 194 -272 13 -14 44 -50 69
-79 61 -72 381 -391 387 -386 2 3 -9 20 -25 38 -78 90 -152 224 -152 275 0 56
42 84 124 84 l42 0 -1 81 0 81 45 39 c25 22 51 38 59 37 25 -5 262 -288 365
-436 102 -148 222 -360 294 -522 58 -129 139 -375 168 -510 4 -19 9 -39 10
-45 2 -5 10 -57 19 -115 23 -148 23 -367 -1 -495 -15 -83 -67 -265 -85 -297
-5 -10 -9 -22 -9 -28 0 -9 -80 -177 -116 -241 -27 -50 -129 -187 -181 -243
-227 -244 -506 -386 -813 -412 -167 -14 -277 -7 -415 27 -279 68 -516 207
-809 472 -97 88 -201 207 -189 217 4 4 67 19 138 34 208 41 372 104 278 107
-16 0 -37 2 -48 4 -11 2 -40 6 -65 9 -25 3 -54 7 -65 10 -89 20 -119 28 -180
50 -298 104 -743 371 -1044 629 -30 26 -56 45 -58 43 -6 -6 58 -122 170 -310
40 -66 79 -131 87 -145 88 -150 322 -468 475 -646 277 -323 511 -511 815 -658
385 -186 793 -238 1216 -156 358 69 620 230 854 525 48 61 139 214 187 316 53
110 126 338 147 454 31 172 41 298 41 514 0 243 -11 350 -59 586 -7 36 -66
238 -75 259 -5 11 -15 36 -22 55 -30 83 -203 447 -278 585 -100 185 -332 535
-405 611 -6 6 -24 28 -41 49 -59 75 -121 142 -274 295 -182 181 -215 212 -391
353 -152 122 -592 412 -820 540 -19 11 -87 49 -150 85 -265 151 -634 324 -946
443 -84 32 -195 76 -246 98 -129 54 -243 93 -439 150 -198 58 -273 95 -394
196 -49 42 -114 87 -144 102 -69 33 -156 39 -227 14z m1111 -690 c7 -22 -12
-68 -32 -75 -7 -3 -22 3 -33 14 -19 19 -19 22 -5 50 18 35 60 42 70 11z m-139
-227 c37 -16 87 -15 128 1 17 8 17 6 2 -22 -32 -62 -104 -84 -141 -43 -14 15
-39 80 -31 80 2 0 21 -7 42 -16z m-1071 -519 c11 -2 23 -4 28 -4 14 -2 6 -21
-23 -54 -29 -34 -39 -54 -21 -43 12 8 197 9 248 2 62 -9 144 -42 193 -77 48
-35 47 -45 -3 -31 -36 10 -188 8 -242 -3 -44 -9 -225 -43 -260 -49 -101 -17
-142 -21 -250 -21 -97 0 -129 4 -163 19 -26 12 -42 26 -42 36 0 22 72 89 142
133 134 84 265 115 393 92z"/>
</g>
</svg>
